<mxfile host="app.diagrams.net" modified="2021-03-02T05:23:37.894Z" agent="5.0 (Windows NT 10.0; Win64; x64) AppleWebKit/537.36 (KHTML, like Gecko) Chrome/88.0.4324.182 Safari/537.36" etag="upvvOKWGJ054We0vC-ed" version="14.4.3" type="github">
  <diagram id="C5RBs43oDa-KdzZeNtuy" name="Page-1">
    <mxGraphModel dx="1221" dy="645" grid="1" gridSize="10" guides="1" tooltips="1" connect="1" arrows="1" fold="1" page="1" pageScale="1" pageWidth="827" pageHeight="1169" math="0" shadow="0">
      <root>
        <mxCell id="WIyWlLk6GJQsqaUBKTNV-0" />
        <mxCell id="WIyWlLk6GJQsqaUBKTNV-1" parent="WIyWlLk6GJQsqaUBKTNV-0" />
        <mxCell id="SISovmPEMsUxczhvT3vP-45" value="" style="edgeStyle=orthogonalEdgeStyle;rounded=0;orthogonalLoop=1;jettySize=auto;html=1;" edge="1" parent="WIyWlLk6GJQsqaUBKTNV-1" source="SISovmPEMsUxczhvT3vP-0" target="SISovmPEMsUxczhvT3vP-40">
          <mxGeometry relative="1" as="geometry" />
        </mxCell>
        <mxCell id="SISovmPEMsUxczhvT3vP-0" value="被动死亡" style="rounded=1;whiteSpace=wrap;html=1;fillColor=#fff2cc;strokeColor=#d6b656;" vertex="1" parent="WIyWlLk6GJQsqaUBKTNV-1">
          <mxGeometry x="235" y="285" width="70" height="40" as="geometry" />
        </mxCell>
        <mxCell id="SISovmPEMsUxczhvT3vP-13" style="edgeStyle=orthogonalEdgeStyle;rounded=0;orthogonalLoop=1;jettySize=auto;html=1;exitX=1;exitY=0.5;exitDx=0;exitDy=0;entryX=0;entryY=0.5;entryDx=0;entryDy=0;" edge="1" parent="WIyWlLk6GJQsqaUBKTNV-1" target="SISovmPEMsUxczhvT3vP-6">
          <mxGeometry relative="1" as="geometry">
            <mxPoint x="460" y="305" as="sourcePoint" />
          </mxGeometry>
        </mxCell>
        <mxCell id="SISovmPEMsUxczhvT3vP-15" style="edgeStyle=orthogonalEdgeStyle;rounded=0;orthogonalLoop=1;jettySize=auto;html=1;exitX=1;exitY=0.5;exitDx=0;exitDy=0;" edge="1" parent="WIyWlLk6GJQsqaUBKTNV-1" source="SISovmPEMsUxczhvT3vP-5" target="SISovmPEMsUxczhvT3vP-14">
          <mxGeometry relative="1" as="geometry" />
        </mxCell>
        <mxCell id="SISovmPEMsUxczhvT3vP-5" value="被动踩在尸体模型上&lt;br&gt;从而免除死亡" style="rounded=1;whiteSpace=wrap;html=1;fillColor=#d5e8d4;strokeColor=#82b366;" vertex="1" parent="WIyWlLk6GJQsqaUBKTNV-1">
          <mxGeometry x="505" y="282.5" width="110" height="45" as="geometry" />
        </mxCell>
        <mxCell id="SISovmPEMsUxczhvT3vP-18" style="edgeStyle=orthogonalEdgeStyle;rounded=0;orthogonalLoop=1;jettySize=auto;html=1;exitX=1;exitY=0.5;exitDx=0;exitDy=0;entryX=0;entryY=0.5;entryDx=0;entryDy=0;" edge="1" parent="WIyWlLk6GJQsqaUBKTNV-1" source="SISovmPEMsUxczhvT3vP-6" target="SISovmPEMsUxczhvT3vP-14">
          <mxGeometry relative="1" as="geometry" />
        </mxCell>
        <mxCell id="SISovmPEMsUxczhvT3vP-6" value="再一次&lt;br&gt;从出生点出生" style="rounded=1;whiteSpace=wrap;html=1;fillColor=#dae8fc;strokeColor=#6c8ebf;" vertex="1" parent="WIyWlLk6GJQsqaUBKTNV-1">
          <mxGeometry x="505" y="387.5" width="100" height="45" as="geometry" />
        </mxCell>
        <mxCell id="SISovmPEMsUxczhvT3vP-19" style="edgeStyle=orthogonalEdgeStyle;rounded=0;orthogonalLoop=1;jettySize=auto;html=1;exitX=0.5;exitY=1;exitDx=0;exitDy=0;" edge="1" parent="WIyWlLk6GJQsqaUBKTNV-1" source="SISovmPEMsUxczhvT3vP-14" target="SISovmPEMsUxczhvT3vP-20">
          <mxGeometry relative="1" as="geometry">
            <mxPoint x="735" y="380" as="targetPoint" />
          </mxGeometry>
        </mxCell>
        <mxCell id="SISovmPEMsUxczhvT3vP-23" style="edgeStyle=orthogonalEdgeStyle;rounded=0;orthogonalLoop=1;jettySize=auto;html=1;exitX=1;exitY=0.5;exitDx=0;exitDy=0;" edge="1" parent="WIyWlLk6GJQsqaUBKTNV-1" source="SISovmPEMsUxczhvT3vP-14" target="SISovmPEMsUxczhvT3vP-24">
          <mxGeometry relative="1" as="geometry">
            <mxPoint x="670" y="565" as="targetPoint" />
          </mxGeometry>
        </mxCell>
        <mxCell id="SISovmPEMsUxczhvT3vP-14" value="被动经过传送点" style="rounded=1;whiteSpace=wrap;html=1;fillColor=#f8cecc;strokeColor=#b85450;" vertex="1" parent="WIyWlLk6GJQsqaUBKTNV-1">
          <mxGeometry x="685" y="280" width="100" height="50" as="geometry" />
        </mxCell>
        <mxCell id="SISovmPEMsUxczhvT3vP-20" value="传送点被点亮" style="rounded=1;whiteSpace=wrap;html=1;fillColor=#f8cecc;strokeColor=#b85450;" vertex="1" parent="WIyWlLk6GJQsqaUBKTNV-1">
          <mxGeometry x="685" y="390" width="100" height="40" as="geometry" />
        </mxCell>
        <mxCell id="SISovmPEMsUxczhvT3vP-22" style="edgeStyle=orthogonalEdgeStyle;rounded=0;orthogonalLoop=1;jettySize=auto;html=1;exitX=0.5;exitY=0;exitDx=0;exitDy=0;entryX=0.5;entryY=1;entryDx=0;entryDy=0;" edge="1" parent="WIyWlLk6GJQsqaUBKTNV-1" source="SISovmPEMsUxczhvT3vP-21" target="SISovmPEMsUxczhvT3vP-0">
          <mxGeometry relative="1" as="geometry" />
        </mxCell>
        <mxCell id="SISovmPEMsUxczhvT3vP-21" value="从出生点出生" style="rounded=1;whiteSpace=wrap;html=1;fillColor=#dae8fc;strokeColor=#6c8ebf;" vertex="1" parent="WIyWlLk6GJQsqaUBKTNV-1">
          <mxGeometry x="220" y="385" width="100" height="45" as="geometry" />
        </mxCell>
        <mxCell id="SISovmPEMsUxczhvT3vP-27" style="edgeStyle=orthogonalEdgeStyle;rounded=0;orthogonalLoop=1;jettySize=auto;html=1;exitX=1;exitY=0.5;exitDx=0;exitDy=0;entryX=0;entryY=0.5;entryDx=0;entryDy=0;" edge="1" parent="WIyWlLk6GJQsqaUBKTNV-1" source="SISovmPEMsUxczhvT3vP-24" target="SISovmPEMsUxczhvT3vP-26">
          <mxGeometry relative="1" as="geometry" />
        </mxCell>
        <mxCell id="SISovmPEMsUxczhvT3vP-24" value="无法直接跳过的障碍" style="rounded=1;whiteSpace=wrap;html=1;" vertex="1" parent="WIyWlLk6GJQsqaUBKTNV-1">
          <mxGeometry x="820" y="282.5" width="120" height="45" as="geometry" />
        </mxCell>
        <mxCell id="SISovmPEMsUxczhvT3vP-29" style="edgeStyle=orthogonalEdgeStyle;rounded=0;orthogonalLoop=1;jettySize=auto;html=1;exitX=1;exitY=0.5;exitDx=0;exitDy=0;entryX=0;entryY=0.5;entryDx=0;entryDy=0;" edge="1" parent="WIyWlLk6GJQsqaUBKTNV-1" source="SISovmPEMsUxczhvT3vP-26" target="SISovmPEMsUxczhvT3vP-28">
          <mxGeometry relative="1" as="geometry" />
        </mxCell>
        <mxCell id="SISovmPEMsUxczhvT3vP-32" style="edgeStyle=orthogonalEdgeStyle;rounded=0;orthogonalLoop=1;jettySize=auto;html=1;exitX=0.5;exitY=1;exitDx=0;exitDy=0;" edge="1" parent="WIyWlLk6GJQsqaUBKTNV-1" source="SISovmPEMsUxczhvT3vP-26" target="SISovmPEMsUxczhvT3vP-33">
          <mxGeometry relative="1" as="geometry">
            <mxPoint x="1030" y="370" as="targetPoint" />
          </mxGeometry>
        </mxCell>
        <mxCell id="SISovmPEMsUxczhvT3vP-26" value="主动死亡" style="rounded=1;whiteSpace=wrap;html=1;fillColor=#fff2cc;strokeColor=#d6b656;" vertex="1" parent="WIyWlLk6GJQsqaUBKTNV-1">
          <mxGeometry x="990" y="282.5" width="80" height="45" as="geometry" />
        </mxCell>
        <mxCell id="SISovmPEMsUxczhvT3vP-30" style="edgeStyle=orthogonalEdgeStyle;rounded=0;orthogonalLoop=1;jettySize=auto;html=1;exitX=1;exitY=0.5;exitDx=0;exitDy=0;" edge="1" parent="WIyWlLk6GJQsqaUBKTNV-1" source="SISovmPEMsUxczhvT3vP-28">
          <mxGeometry relative="1" as="geometry">
            <mxPoint x="1260" y="305" as="targetPoint" />
          </mxGeometry>
        </mxCell>
        <mxCell id="SISovmPEMsUxczhvT3vP-28" value="主动踩在&lt;br&gt;尸体模型上" style="rounded=1;whiteSpace=wrap;html=1;fillColor=#d5e8d4;strokeColor=#82b366;" vertex="1" parent="WIyWlLk6GJQsqaUBKTNV-1">
          <mxGeometry x="1120" y="282.5" width="80" height="45" as="geometry" />
        </mxCell>
        <mxCell id="SISovmPEMsUxczhvT3vP-31" value="拿到圣杯" style="rounded=1;whiteSpace=wrap;html=1;" vertex="1" parent="WIyWlLk6GJQsqaUBKTNV-1">
          <mxGeometry x="1250" y="283.75" width="89.5" height="46.25" as="geometry" />
        </mxCell>
        <mxCell id="SISovmPEMsUxczhvT3vP-33" value="从被点亮的传送点出生" style="rounded=1;whiteSpace=wrap;html=1;fillColor=#f8cecc;strokeColor=#b85450;" vertex="1" parent="WIyWlLk6GJQsqaUBKTNV-1">
          <mxGeometry x="965" y="390" width="130" height="40" as="geometry" />
        </mxCell>
        <mxCell id="SISovmPEMsUxczhvT3vP-44" value="" style="edgeStyle=orthogonalEdgeStyle;rounded=0;orthogonalLoop=1;jettySize=auto;html=1;" edge="1" parent="WIyWlLk6GJQsqaUBKTNV-1" source="SISovmPEMsUxczhvT3vP-40" target="SISovmPEMsUxczhvT3vP-5">
          <mxGeometry relative="1" as="geometry" />
        </mxCell>
        <mxCell id="SISovmPEMsUxczhvT3vP-40" value="&lt;span&gt;根据提示召唤小骑士&lt;/span&gt;" style="rounded=1;whiteSpace=wrap;html=1;" vertex="1" parent="WIyWlLk6GJQsqaUBKTNV-1">
          <mxGeometry x="350" y="282.5" width="120" height="45" as="geometry" />
        </mxCell>
        <mxCell id="SISovmPEMsUxczhvT3vP-46" value="" style="curved=1;endArrow=classic;html=1;exitX=0.5;exitY=1;exitDx=0;exitDy=0;entryX=0.5;entryY=1;entryDx=0;entryDy=0;" edge="1" parent="WIyWlLk6GJQsqaUBKTNV-1" source="SISovmPEMsUxczhvT3vP-6" target="SISovmPEMsUxczhvT3vP-33">
          <mxGeometry width="50" height="50" relative="1" as="geometry">
            <mxPoint x="580" y="500" as="sourcePoint" />
            <mxPoint x="630" y="450" as="targetPoint" />
            <Array as="points">
              <mxPoint x="650" y="500" />
              <mxPoint x="940" y="500" />
            </Array>
          </mxGeometry>
        </mxCell>
      </root>
    </mxGraphModel>
  </diagram>
</mxfile>
